<svg xmlns="http://www.w3.org/2000/svg" xmlns:xlink="http://www.w3.org/1999/xlink" width="93.997" height="59.963" viewBox="0 0 93.997 59.963">
  <defs>
    <clipPath id="clip-path">
      <rect id="Rectangle_3512" data-name="Rectangle 3512" width="93.997" height="59.963" fill="none"/>
    </clipPath>
  </defs>
  <g id="icon-usp-1" transform="translate(0 0)">
    <g id="Group_8048" data-name="Group 8048" transform="translate(0 0)" clip-path="url(#clip-path)">
      <path id="Path_10846" data-name="Path 10846" d="M69.261,52.715a12.155,12.155,0,1,0-13.408,0A19.463,19.463,0,0,0,43.11,70.946h3.241a16.207,16.207,0,0,1,32.413,0h3.241A19.464,19.464,0,0,0,69.261,52.715m-6.7-1.216a8.914,8.914,0,1,1,8.913-8.913A8.923,8.923,0,0,1,62.557,51.5" transform="translate(-15.559 -10.983)" fill="#007893"/>
      <path id="Path_10847" data-name="Path 10847" d="M99.7,40.035a12.143,12.143,0,1,0-17.159-16.3A15.4,15.4,0,0,1,85.4,25.256a8.97,8.97,0,0,1,2.175-2.414A8.9,8.9,0,1,1,92.994,38.82c-.286,0-.569-.017-.849-.043A15.343,15.343,0,0,1,91.6,42.16c.463-.04.921-.1,1.394-.1A16.305,16.305,0,0,1,109.2,58.267h3.241A19.463,19.463,0,0,0,99.7,40.035" transform="translate(-29.79 -6.407)" fill="#007893"/>
      <path id="Path_10848" data-name="Path 10848" d="M37.2,42.06c.474,0,.932.059,1.4.1a15.317,15.317,0,0,1-.546-3.384c-.28.027-.562.043-.849.043a8.913,8.913,0,1,1,5.415-15.977,8.971,8.971,0,0,1,2.175,2.414,15.364,15.364,0,0,1,2.865-1.518,12.225,12.225,0,0,0-2.08-2.618A12.144,12.144,0,1,0,30.5,40.035,19.462,19.462,0,0,0,17.752,58.267h3.241A16.305,16.305,0,0,1,37.2,42.06" transform="translate(-6.407 -6.407)" fill="#007893"/>
      <path id="Path_10849" data-name="Path 10849" d="M117.449,22.284a12.143,12.143,0,1,0-17.159-16.3,15.4,15.4,0,0,1,2.865,1.518,8.971,8.971,0,0,1,2.175-2.414,8.9,8.9,0,1,1,9.12,15.156,12.453,12.453,0,0,1,.027,4.521,16.214,16.214,0,0,1,12.474,15.748h3.241a19.462,19.462,0,0,0-12.744-18.232" transform="translate(-36.196 0)" fill="#f7af10"/>
      <path id="Path_10850" data-name="Path 10850" d="M15.522,22.609a13.458,13.458,0,0,1,.22-2.363,8.9,8.9,0,1,1,11.3-12.741A15.363,15.363,0,0,1,29.9,5.987a12.145,12.145,0,1,0-17.159,16.3A19.464,19.464,0,0,0,0,40.516H3.241A16.215,16.215,0,0,1,15.716,24.767a13.422,13.422,0,0,1-.194-2.158" transform="translate(0 0)" fill="#f7af10"/>
      <path id="Path_10851" data-name="Path 10851" d="M66.9,3.241a8.9,8.9,0,0,1,8.711,7.229,10.241,10.241,0,0,1,3.055-1.309,12.137,12.137,0,0,0-23.532,0,10.241,10.241,0,0,1,3.055,1.309A8.9,8.9,0,0,1,66.9,3.241" transform="translate(-19.897 0)" fill="#f7af10"/>
    </g>
  </g>
</svg>
