<svg xmlns="http://www.w3.org/2000/svg" xmlns:xlink="http://www.w3.org/1999/xlink" width="47.131" height="38.298" viewBox="0 0 47.131 38.298">
  <defs>
    <clipPath id="clip-path">
      <rect id="Rectangle_3292" data-name="Rectangle 3292" width="47.131" height="38.298" fill="#bee3ff"/>
    </clipPath>
  </defs>
  <g id="icon-quote" clip-path="url(#clip-path)">
    <path id="Path_10165" data-name="Path 10165" d="M18.7,4.823a19.364,19.364,0,0,1,2.6,10.021c0,9.869-4.9,18.407-15.662,23.454L4.231,35.55c6.234-2.6,11.578-8.979,11.578-14.918a9.7,9.7,0,0,0-.446-3.191,9.3,9.3,0,0,1-5.639,2C4.379,19.444,0,15.809,0,9.723A9.568,9.568,0,0,1,9.723,0,9.92,9.92,0,0,1,18.7,4.823m25.829,0a19.364,19.364,0,0,1,2.6,10.021c0,9.869-4.9,18.407-15.662,23.454L30.057,35.55c6.237-2.6,11.581-8.979,11.581-14.918a9.7,9.7,0,0,0-.446-3.191,9.138,9.138,0,0,1-5.642,2,9.346,9.346,0,0,1-9.721-9.721A9.611,9.611,0,0,1,35.55,0a9.84,9.84,0,0,1,8.982,4.823" transform="translate(0 -0.001)" fill="#bee3ff"/>
  </g>
</svg>
