<svg xmlns="http://www.w3.org/2000/svg" xmlns:xlink="http://www.w3.org/1999/xlink" width="78.415" height="49.52" viewBox="0 0 78.415 49.52">
  <defs>
    <clipPath id="clip-path">
      <rect id="Rectangle_3513" data-name="Rectangle 3513" width="78.415" height="49.52" transform="translate(0 0)" fill="#f7af10"/>
    </clipPath>
  </defs>
  <g id="icon-usp-3" transform="translate(0 0.001)">
    <g id="Group_8050" data-name="Group 8050" transform="translate(0 -0.001)" clip-path="url(#clip-path)">
      <path id="Path_10852" data-name="Path 10852" d="M4.912,3.668H9.861a4.929,4.929,0,0,1,4.9,4.533l.532.144a3.813,3.813,0,0,0,1.887-.163c3.3-.92,9.383-4.264,12.949-5.887A20.443,20.443,0,0,1,36.189.1c3.59-.444,7.437.685,10.817,1.993a75.509,75.509,0,0,1,8.641,4.273c1.667.9,3.813,2.045,5.735,2.16a5.359,5.359,0,0,0,1.742-.18l.531-.144a4.922,4.922,0,0,1,4.9-4.533H73.5A4.921,4.921,0,0,1,78.415,8.58V35.955A4.921,4.921,0,0,1,73.5,40.868H68.554a4.922,4.922,0,0,1-4.9-4.629,14.328,14.328,0,0,0-2.484,1.037l-.232.12-.1.25c-1.324,3.345-4.154,5.41-7.244,4.919A6.823,6.823,0,0,1,50.2,45.157a6.345,6.345,0,0,1-2.641.357A6.342,6.342,0,0,1,40.468,47.9q-.107.121-.225.237c-1.625,1.589-4.283,1.678-6.319.923a21.983,21.983,0,0,1-5.517-3.481c-1.957-1.55-3.843-3.186-5.812-4.723-2.193-1.712-5.064-3.795-7.83-4.618a4.928,4.928,0,0,1-4.9,4.629H4.912A4.927,4.927,0,0,1,0,35.955V8.58A4.927,4.927,0,0,1,4.912,3.668M30.944,5.5,26.978,8.75c-.951.779-1.926,1.518-2.907,2.259-.721.544-1.448,1.092-2.122,1.694s-2.468,1.886-1.611,2.828a9.112,9.112,0,0,0,2.087,1.538c1.845,1.068,4.185.839,6.14.232a20.483,20.483,0,0,0,7.868-4.954l1.728-1.682L60.289,35.111a15.223,15.223,0,0,1,3.445-1.3V10.589c-5.372,1.458-9.744-3.3-17.567-6.329a24.489,24.489,0,0,0-8.04-1.933c-3.85-.075-4.494.974-7.183,3.176M58.582,37.008,38.044,14.319a22.816,22.816,0,0,1-8.726,5.406,10.3,10.3,0,0,1-10.006-1.608C17.57,16.772,16.9,14.67,18.377,12.8a15.681,15.681,0,0,1,1.882-1.993c.728-.65,1.5-1.238,2.282-1.826.726-.548,1.451-1.1,2.163-1.661-2.647,1.3-7.09,3.978-9.93,3.29V33.835C22.107,35.582,29.82,45.06,34.732,46.88c2,.741,4.988.287,4.393-2.628,3.027,3.606,7.86.4,6.706-1.944,2.426,2.448,7.124-.606,6.056-2.97,2.855,2.107,5.474.512,6.7-2.33M68.554,5.993H73.5A2.6,2.6,0,0,1,76.09,8.58V35.955A2.6,2.6,0,0,1,73.5,38.543H68.554a2.6,2.6,0,0,1-2.587-2.587V8.58a2.6,2.6,0,0,1,2.587-2.587M12.448,35.686,12.356,7.9a2.6,2.6,0,0,0-2.495-1.9H4.912A2.6,2.6,0,0,0,2.325,8.58V35.955a2.6,2.6,0,0,0,2.587,2.587H9.861a2.6,2.6,0,0,0,2.587-2.587Z" transform="translate(0 0)" fill="#f7af10" fill-rule="evenodd"/>
    </g>
  </g>
</svg>
