<svg xmlns="http://www.w3.org/2000/svg" xmlns:xlink="http://www.w3.org/1999/xlink" width="67" height="67.371" viewBox="0 0 67 67.371">
  <defs>
    <clipPath id="clip-path">
      <rect id="Rectangle_3515" data-name="Rectangle 3515" width="67" height="67.371" fill="#f7af10"/>
    </clipPath>
  </defs>
  <g id="icon-usp-2" transform="translate(0 -0.001)">
    <g id="Group_8054" data-name="Group 8054" transform="translate(0 0.001)" clip-path="url(#clip-path)">
      <path id="Path_10855" data-name="Path 10855" d="M234.724,17.532c2.487-5.951,3.359-11.688,2.523-16.591a.771.771,0,0,0-.631-.631c-4.9-.837-10.64.036-16.591,2.523l-.135.058-.034.014a54.486,54.486,0,0,0-17,11.707q-1.244,1.244-2.405,2.551a19.525,19.525,0,0,0-18.182,18.592s0,0,0,0c0,.019,0,.038,0,.057s0,.014,0,.022,0,.027,0,.041a.765.765,0,0,0,.069.243l0,0c.006.012.013.024.02.036s.011.02.017.03l.007.011a.766.766,0,0,0,.16.181l.035.028.017.011c.016.011.032.022.049.032l0,0,.015.008.05.026.027.011.042.017.039.012.033.009.051.01.023,0,.062.006h.067l.044,0,.036,0,.035-.005.041-.009.03-.007.042-.013.029-.01.038-.016.03-.014.032-.017.033-.019.026-.018.035-.025.022-.018.034-.03.021-.021.03-.031.026-.033.019-.024a.778.778,0,0,0,.043-.065,11.32,11.32,0,0,1,7.818-5.43,41.5,41.5,0,0,0-1.945,5.236.755.755,0,0,0-.019.079c0,.012,0,.023-.005.035s0,.026-.005.038,0,.032,0,.048,0,.017,0,.026,0,.033,0,.049,0,.017,0,.025,0,.03.006.045,0,.02,0,.03.006.025.009.038.006.024.01.036.007.02.01.03.01.028.015.041l.011.024c.007.015.013.029.021.043l.014.024c.008.013.016.027.024.04l.023.032.021.028a.788.788,0,0,0,.054.06l1.414,1.413a12.786,12.786,0,0,0-6.7,11.247V52.34a.771.771,0,0,0,.771.771h3.024A12.8,12.8,0,0,0,199.5,46.476l1.3,1.3,0,0,0,0,0,0q.023.022.047.042l.019.015.037.027.023.016.037.022.026.014.055.026.027.01.039.014.026.008.044.011.022,0,.055.008h.012c.023,0,.047,0,.071,0s.046,0,.068,0l.015,0,.052-.007.019,0c.021,0,.041-.009.062-.015l.006,0a41.346,41.346,0,0,0,5.02-1.849,11.315,11.315,0,0,1-3.092,5.784c-.206.206-.4.416-.591.619a7.126,7.126,0,0,1-1.5,1.347l0,0-.049.032-.017.011-.035.028a.766.766,0,0,0-.16.181l-.007.011c-.006.01-.011.02-.017.03s-.014.024-.02.036l0,0a.765.765,0,0,0-.069.243c0,.014,0,.027,0,.041s0,.014,0,.022,0,.038,0,.057c0,0,0,0,0,0s0,.012,0,.019,0,.036.005.054,0,.019.005.028.005.03.009.045.007.026.011.039.006.021.01.032.014.037.022.055l.006.014a.768.768,0,0,0,.088.146l.016.021q.023.028.047.053l.016.016a.748.748,0,0,0,.065.055l.024.017c.017.012.035.024.054.035l.023.013a.771.771,0,0,0,.166.067l.02.005c.023.006.046.01.07.014l.023,0a.771.771,0,0,0,.087.006h.038a19.525,19.525,0,0,0,18.6-18.237q1.289-1.147,2.52-2.377A54.481,54.481,0,0,0,234.657,17.69l.008-.019.06-.14m1.087-15.786a28.772,28.772,0,0,1-2.135,14.279L221.532,3.881a28.774,28.774,0,0,1,14.279-2.135M184.389,32.8c-.079.079-.155.159-.232.239A17.907,17.907,0,0,1,198.99,18.875a53.939,53.939,0,0,0-6.678,10.213,12.854,12.854,0,0,0-7.923,3.709m17.182,13.567L191.193,35.986a40.253,40.253,0,0,1,1.711-4.536l13.2,13.2a40.251,40.251,0,0,1-4.536,1.711m-13.283,5.206h-2.252V49.415a11.244,11.244,0,0,1,6.3-10.1l6.021,6.021a11.257,11.257,0,0,1-10.07,6.236M204.1,53.512c.16-.171.324-.346.489-.511a12.856,12.856,0,0,0,3.682-7.659,53.837,53.837,0,0,0,10.444-6.8A17.908,17.908,0,0,1,204.1,53.512m17.751-19.906a54.409,54.409,0,0,1-14.26,10.351L193.6,29.963A54.409,54.409,0,0,1,203.951,15.7,53.441,53.441,0,0,1,219.99,4.52l13.047,13.047a53.441,53.441,0,0,1-11.182,16.038" transform="translate(-170.555 -0.002)" fill="#f7af10"/>
      <path id="Path_10856" data-name="Path 10856" d="M499.5,515.413l-.26.26a.771.771,0,0,0,1.091,1.091l.26-.26a.771.771,0,0,0-1.091-1.091" transform="translate(-466.938 -482.069)" fill="#f7af10"/>
      <path id="Path_10857" data-name="Path 10857" d="M533.8,472.116l-.879.879a.771.771,0,1,0,1.091,1.091l.879-.879a.771.771,0,1,0-1.091-1.091" transform="translate(-498.449 -441.555)" fill="#f7af10"/>
      <path id="Path_10858" data-name="Path 10858" d="M580.193,410.082l-1.953,1.953a.771.771,0,1,0,1.091,1.091l1.953-1.953a.771.771,0,0,0-1.091-1.091" transform="translate(-540.857 -383.509)" fill="#f7af10"/>
      <path id="Path_10859" data-name="Path 10859" d="M654.051,213.042a6.017,6.017,0,1,0,0,8.513,6.026,6.026,0,0,0,0-8.513m-1.091,7.422a4.477,4.477,0,1,1,1.311-3.166,4.482,4.482,0,0,1-1.311,3.166" transform="translate(-602.393 -197.7)" fill="#f7af10"/>
      <path id="Path_10860" data-name="Path 10860" d="M70.059,588.053a.769.769,0,0,0,.545-.226l4.523-4.523a.771.771,0,1,0-1.091-1.091l-4.523,4.523a.771.771,0,0,0,.545,1.317" transform="translate(-64.833 -544.575)" fill="#f7af10"/>
      <path id="Path_10861" data-name="Path 10861" d="M11.227,693.412a.771.771,0,1,0-1.091-1.091L.226,702.231a.771.771,0,0,0,1.091,1.091Z" transform="translate(0 -647.605)" fill="#f7af10"/>
      <path id="Path_10862" data-name="Path 10862" d="M184.524,872.791l-9.737,9.737a.771.771,0,0,0,1.091,1.091l9.737-9.737a.771.771,0,0,0-1.091-1.091" transform="translate(-163.34 -816.473)" fill="#f7af10"/>
      <path id="Path_10863" data-name="Path 10863" d="M375.272,887.292l-3.9,3.9a.771.771,0,1,0,1.091,1.091l3.9-3.9a.771.771,0,0,0-1.091-1.091" transform="translate(-347.286 -830.043)" fill="#f7af10"/>
      <path id="Path_10864" data-name="Path 10864" d="M30.711,842.532a.771.771,0,0,0-1.091,0L19.561,852.591a.771.771,0,1,0,1.091,1.091l10.059-10.059a.771.771,0,0,0,0-1.091" transform="translate(-18.093 -788.16)" fill="#f7af10"/>
    </g>
  </g>
</svg>
