<svg id="icon-usp-4" xmlns="http://www.w3.org/2000/svg" xmlns:xlink="http://www.w3.org/1999/xlink" width="63.453" height="56.387" viewBox="0 0 63.453 56.387">
  <defs>
    <clipPath id="clip-path">
      <rect id="Rectangle_3514" data-name="Rectangle 3514" width="63.453" height="56.387" fill="#f7af10"/>
    </clipPath>
  </defs>
  <g id="Group_8052" data-name="Group 8052" clip-path="url(#clip-path)">
    <path id="Path_10853" data-name="Path 10853" d="M4.052,139.369H16.812a4.061,4.061,0,0,1,4.052,4.052v24.118a4.061,4.061,0,0,1-4.052,4.052H4.052A4.061,4.061,0,0,1,0,167.538V143.421a4.061,4.061,0,0,1,4.052-4.052m12.761,1.978H4.052a2.082,2.082,0,0,0-2.074,2.074v24.118a2.082,2.082,0,0,0,2.074,2.074H16.812a2.082,2.082,0,0,0,2.074-2.074V143.421a2.082,2.082,0,0,0-2.074-2.074" transform="translate(0 -115.439)" fill="#f7af10"/>
    <path id="Path_10854" data-name="Path 10854" d="M109.5,26.053a.985.985,0,1,0,.85,1.777c.039-.019,13.576-6.295,11.594-25.677,2.741-.5,11.515-.7,7.712,18.575h0a.989.989,0,0,0,1.18,1.158c1.629-.209,27.128-3.3,18.967,9.216l0,0a.989.989,0,0,0,.1,1.208c.372.485,3.2,4.415-1.3,6.6h0a.989.989,0,0,0-.493,1.238c.134.4,1.614,5.095-1.861,6.584h0a.99.99,0,0,0-.6,1c-.005.815-.221,7.367-5.762,6.613v0a1,1,0,0,0-.151-.009H115.671l-5.114-2.812a.987.987,0,0,0-.95,1.731l5.285,2.907a.986.986,0,0,0,.528.153h24.29c6.828.865,7.757-5.91,7.88-8.046,3.565-1.959,3.015-6.19,2.6-7.97,4.805-2.823,2.633-7.138,1.621-8.691,8.466-13.871-14.122-12.408-19.971-11.816C136.019-3.861,121.626.133,120.624.438a.989.989,0,0,0-.743,1.082h0c2.311,18.653-10.347,24.516-10.383,24.534" transform="translate(-90.232 -0.001)" fill="#f7af10"/>
  </g>
</svg>
