<svg xmlns="http://www.w3.org/2000/svg" width="130.269" height="51.486" viewBox="0 0 130.269 51.486">
  <g id="logo" transform="translate(20202.462 5275.04)">
    <path id="Path_10214" data-name="Path 10214" d="M217.538,291.412h6.444l5,18.837.721,3.47h.361l.946-3.47,4.642-14.511h5.678l4.687,14.511.9,3.425h.361l.676-3.425,4.687-18.837h6.444l-8.562,32.266h-5.858l-5.047-15.547-.946-3.56h-.36l-.946,3.56-5.047,15.547h-5.859Z" transform="translate(-20420 -5557.453)" fill="#007893"/>
    <path id="Path_10215" data-name="Path 10215" d="M689.192,310.835V291.412h6.084V311.2c0,4.281,2.208,7.436,6.444,7.436,4.326,0,6.489-3.155,6.489-7.436V291.412h6.084v19.423c0,8.066-4.867,13.565-12.573,13.565-7.571,0-12.528-5.092-12.528-13.565" transform="translate(-20825.795 -5557.453)" fill="#007893"/>
    <path id="Path_10216" data-name="Path 10216" d="M895.687,359.907h5.543v2.659h.361c1.082-1.848,3.38-3.38,6.76-3.38,5.633,0,10.59,4.912,10.59,11.762s-4.957,11.762-10.59,11.762c-3.38,0-5.678-1.532-6.76-3.38h-.361l.361,3.155v9.4h-5.9Zm17.35,11.041a6.023,6.023,0,0,0-5.9-6.309,6.323,6.323,0,0,0,0,12.618,6.023,6.023,0,0,0,5.9-6.309" transform="translate(-21003.457 -5615.763)" fill="#007893"/>
    <path id="Path_10217" data-name="Path 10217" d="M528.24,372.291a5.973,5.973,0,0,1-2.523,2.657,5.755,5.755,0,0,1-7.781-1.5l14.408-8.3a1.7,1.7,0,0,1-.209-.452,2.028,2.028,0,0,1-.209-.452l-.27-.468c-3.308-5.74-9.18-8.077-15.349-4.522a11.764,11.764,0,0,0,11.941,20.269,12.3,12.3,0,0,0,4.1-3.7Zm-9.524-8.86c3.085-1.778,5.728-.44,6.655.9l-9.253,5.333a5.469,5.469,0,0,1,2.6-6.231" transform="translate(-20672.129 -5614.371)" fill="#007893"/>
    <path id="Path_10218" data-name="Path 10218" d="M1039.365,248.137l-3.973-1.062,1.182,3.908a6.191,6.191,0,0,1,2.791-2.846" transform="translate(-21123.654 -5519.307)" fill="#f7af10"/>
    <path id="Path_10219" data-name="Path 10219" d="M1020.612,282.136a6.157,6.157,0,0,1,.315-1.944l-3.388,1.948,3.342,1.8a6.166,6.166,0,0,1-.268-1.8" transform="translate(-21108.293 -5547.799)" fill="#f7af10"/>
    <path id="Path_10220" data-name="Path 10220" d="M1036.574,313.168l-1.182,3.908,3.973-1.062a6.19,6.19,0,0,1-2.791-2.846" transform="translate(-21123.654 -5576.17)" fill="#f7af10"/>
    <path id="Path_10221" data-name="Path 10221" d="M1071.6,336.282a6.157,6.157,0,0,1-1.965-.322l2,3.533,1.934-3.535a6.156,6.156,0,0,1-1.969.323" transform="translate(-21153.111 -5595.779)" fill="#f7af10"/>
    <path id="Path_10222" data-name="Path 10222" d="M1106.415,312.952a6.188,6.188,0,0,1-2.8,2.872l3.988,1.066Z" transform="translate(-21182.354 -5575.984)" fill="#f7af10"/>
    <path id="Path_10223" data-name="Path 10223" d="M1128.954,281.776l-3.491-2.007a6.175,6.175,0,0,1,.05,3.86Z" transform="translate(-21201.146 -5547.435)" fill="#f7af10"/>
    <path id="Path_10224" data-name="Path 10224" d="M1103.619,248.141a6.188,6.188,0,0,1,2.8,2.872l1.192-3.938Z" transform="translate(-21182.354 -5519.307)" fill="#f7af10"/>
    <path id="Path_10225" data-name="Path 10225" d="M1071.573,230.172a6.158,6.158,0,0,1,1.965.322l-2-3.533-1.934,3.535a6.157,6.157,0,0,1,1.969-.323" transform="translate(-21153.088 -5502)" fill="#f7af10"/>
    <path id="Path_10226" data-name="Path 10226" d="M1049.935,254.521a5.529,5.529,0,1,1-5.529,5.529,5.529,5.529,0,0,1,5.529-5.529" transform="translate(-21131.408 -5525.713)" fill="#f7af10"/>
    <text id="Growth_Happiness" data-name="Growth &amp; Happiness" transform="translate(-20193.98 -5225.554)" fill="#007893" font-size="6" font-family="SegoeUI, Segoe UI"><tspan x="0" y="0" letter-spacing="0.036em">G</tspan><tspan y="0" letter-spacing="0.025em">r</tspan><tspan y="0" letter-spacing="0.046em">o</tspan><tspan y="0" letter-spacing="0.055em">w</tspan><tspan y="0" letter-spacing="0.061em">t</tspan><tspan y="0" letter-spacing="0.055em">h</tspan><tspan y="0" xml:space="preserve" letter-spacing="0.056em"> &amp; </tspan><tspan y="0" letter-spacing="0.041em">H</tspan><tspan y="0" letter-spacing="0.056em">a</tspan><tspan y="0" letter-spacing="0.046em">p</tspan><tspan y="0" letter-spacing="0.05em">p</tspan><tspan y="0" letter-spacing="0.055em">i</tspan><tspan y="0" letter-spacing="0.056em">n</tspan><tspan y="0" letter-spacing="0.061em">e</tspan><tspan y="0" letter-spacing="0.056em">s</tspan><tspan y="0">s</tspan></text>
  </g>
</svg>
