<svg id="logo-footer" xmlns="http://www.w3.org/2000/svg" xmlns:xlink="http://www.w3.org/1999/xlink" width="195" height="76.342" viewBox="0 0 195 76.342">
  <defs>
    <clipPath id="clip-path">
      <rect id="Rectangle_2450" data-name="Rectangle 2450" width="195" height="76.342" fill="none"/>
    </clipPath>
  </defs>
  <path id="Path_8246" data-name="Path 8246" d="M52.549,23.857l-7.016,28.2-1.011,5.127h-.54l-1.349-5.127L35.618,30.333h-8.5L20.169,52.054l-1.416,5.194h-.54l-1.079-5.194-7.488-28.2H0l13.356,48.3h8.77l7.555-23.273L31.1,43.555h.54l1.417,5.329,7.555,23.273h8.77L62.2,23.857Z" transform="translate(0 -10.385)" fill="#fff"/>
  <g id="Group_5632" data-name="Group 5632">
    <g id="Group_5631" data-name="Group 5631" clip-path="url(#clip-path)">
      <path id="Path_8247" data-name="Path 8247" d="M174.585,52.931V23.857h9.107V53.471c0,6.409,3.305,11.13,9.646,11.13,6.476,0,9.714-4.722,9.714-11.13V23.857h9.107V52.931c0,12.075-7.285,20.3-18.82,20.3-11.333,0-18.754-7.623-18.754-20.3" transform="translate(-76 -10.385)" fill="#fff"/>
      <path id="Path_8248" data-name="Path 8248" d="M251.021,50.023h8.3V54h.54c1.619-2.766,5.06-5.059,10.119-5.059,8.432,0,15.852,7.353,15.852,17.606s-7.42,17.607-15.852,17.607c-5.059,0-8.5-2.294-10.119-5.06h-.54l.54,4.722V97.648h-8.837ZM276.992,66.55c0-5.734-4.249-9.444-8.837-9.444s-8.837,3.508-8.837,9.444,4.25,9.444,8.837,9.444,8.837-3.711,8.837-9.444" transform="translate(-109.274 -21.306)" fill="#fff"/>
      <path id="Path_8249" data-name="Path 8249" d="M134.9,70.383a8.946,8.946,0,0,1-3.777,3.976c-3.565,2.054-8.309,2.064-11.647-2.241l21.567-12.43a2.54,2.54,0,0,1-.312-.676,3.054,3.054,0,0,1-.312-.677l-.4-.7c-4.951-8.592-13.741-12.09-22.976-6.768-8.65,4.986-10.862,15.6-6.112,23.844,5.086,8.825,15.279,11.516,23.987,6.5a18.422,18.422,0,0,0,6.131-5.538ZM120.642,57.12c4.617-2.661,8.574-.659,9.962,1.344l-13.851,7.983a8.187,8.187,0,0,1,3.89-9.327" transform="translate(-47.22 -21.045)" fill="#fff"/>
      <path id="Path_8250" data-name="Path 8250" d="M308.681,9.035l-5.947-1.59L304.5,13.3a9.266,9.266,0,0,1,4.177-4.261" transform="translate(-131.786 -3.241)" fill="#f7af10"/>
      <path id="Path_8251" data-name="Path 8251" d="M300.725,22.614a9.219,9.219,0,0,1,.471-2.91l-5.071,2.917,5,2.693a9.224,9.224,0,0,1-.4-2.7" transform="translate(-128.908 -8.578)" fill="#f7af10"/>
      <path id="Path_8252" data-name="Path 8252" d="M304.5,31.91l-1.77,5.85,5.947-1.59A9.266,9.266,0,0,1,304.5,31.91" transform="translate(-131.785 -13.891)" fill="#f7af10"/>
      <path id="Path_8253" data-name="Path 8253" d="M318.349,40.829a9.22,9.22,0,0,1-2.942-.482l2.994,5.289,2.9-5.291a9.216,9.216,0,0,1-2.947.483" transform="translate(-137.302 -17.563)" fill="#f7af10"/>
      <path id="Path_8254" data-name="Path 8254" d="M332.174,31.83a9.263,9.263,0,0,1-4.186,4.3l5.97,1.6Z" transform="translate(-142.779 -13.856)" fill="#f7af10"/>
      <path id="Path_8255" data-name="Path 8255" d="M341.3,22.552l-5.226-3a9.237,9.237,0,0,1,.075,5.778Z" transform="translate(-146.299 -8.509)" fill="#f7af10"/>
      <path id="Path_8256" data-name="Path 8256" d="M327.988,9.041a9.265,9.265,0,0,1,4.186,4.3l1.784-5.9Z" transform="translate(-142.779 -3.241)" fill="#f7af10"/>
      <path id="Path_8257" data-name="Path 8257" d="M318.345,4.807a9.22,9.22,0,0,1,2.942.482L318.293,0,315.4,5.29a9.216,9.216,0,0,1,2.947-.483" transform="translate(-137.298 0)" fill="#f7af10"/>
      <path id="Path_8258" data-name="Path 8258" d="M314.346,10.2a8.276,8.276,0,1,1-8.276,8.276,8.276,8.276,0,0,1,8.276-8.276" transform="translate(-133.238 -4.441)" fill="#f7af10"/>
    </g>
  </g>
</svg>
