<svg id="zalo" xmlns="http://www.w3.org/2000/svg" width="16.965" height="19.324" viewBox="0 0 16.965 19.324">
  <path id="Path_115" data-name="Path 115" d="M133.4,99H119.9a1.735,1.735,0,0,0-1.735,1.735v13.5a1.735,1.735,0,0,0,1.735,1.735h2.706v2.359l3.285-2.359h7.5a1.735,1.735,0,0,0,1.735-1.735v-13.5A1.735,1.735,0,0,0,133.4,99Z" transform="translate(-118.166 -98.999)" fill="#fff"/>
  <path id="Path_116" data-name="Path 116" d="M218.754,138.223v-2.718a1.937,1.937,0,0,0-1.388-.584h-3.95l5.338-7.273v-2.331a1.524,1.524,0,0,0-1.015-.388h-8.074a1.943,1.943,0,1,0,0,3.886h3.4l-5.5,7.571a1.525,1.525,0,0,0,1.234,2.421h8.568A1.937,1.937,0,0,0,218.754,138.223Z" transform="translate(-201.789 -123.334)" fill="#999"/>
</svg>
